<mxfile host="Electron" agent="Mozilla/5.0 (Windows NT 10.0; Win64; x64) AppleWebKit/537.36 (KHTML, like Gecko) draw.io/24.7.17 Chrome/128.0.6613.36 Electron/32.0.1 Safari/537.36" version="24.7.17">
  <diagram name="Page-1" id="Pj4usW7S8iz11VWt7FsC">
    <mxGraphModel dx="1834" dy="836" grid="1" gridSize="10" guides="1" tooltips="1" connect="1" arrows="1" fold="1" page="0" pageScale="1" pageWidth="827" pageHeight="1169" math="0" shadow="0">
      <root>
        <mxCell id="0" />
        <mxCell id="1" parent="0" />
        <mxCell id="C6wh3EZtJ7LM_V2KeVHM-10" value="" style="endArrow=none;html=1;rounded=0;" parent="1" edge="1">
          <mxGeometry width="50" height="50" relative="1" as="geometry">
            <mxPoint x="-152" y="924" as="sourcePoint" />
            <mxPoint x="103" y="1364" as="targetPoint" />
          </mxGeometry>
        </mxCell>
        <mxCell id="iVDdGmymL_h3rcxLCdr5-31" value="" style="endArrow=classic;html=1;rounded=0;exitX=0.269;exitY=0.125;exitDx=0;exitDy=0;exitPerimeter=0;entryX=0.25;entryY=1;entryDx=0;entryDy=0;" parent="1" source="wM-TAG3pXfIrLLwX2Dby-117" target="C6wh3EZtJ7LM_V2KeVHM-7" edge="1">
          <mxGeometry width="50" height="50" relative="1" as="geometry">
            <mxPoint x="118" y="1014" as="sourcePoint" />
            <mxPoint x="108" y="1034" as="targetPoint" />
          </mxGeometry>
        </mxCell>
        <mxCell id="wM-TAG3pXfIrLLwX2Dby-62" value="" style="endArrow=classic;html=1;rounded=0;entryX=0.125;entryY=0.333;entryDx=0;entryDy=0;entryPerimeter=0;" parent="1" target="wM-TAG3pXfIrLLwX2Dby-59" edge="1">
          <mxGeometry width="50" height="50" relative="1" as="geometry">
            <mxPoint x="148" y="624" as="sourcePoint" />
            <mxPoint x="198" y="574" as="targetPoint" />
          </mxGeometry>
        </mxCell>
        <mxCell id="wM-TAG3pXfIrLLwX2Dby-49" value="" style="endArrow=classic;html=1;rounded=0;entryX=0.856;entryY=0.867;entryDx=0;entryDy=0;exitX=0;exitY=0.75;exitDx=0;exitDy=0;entryPerimeter=0;" parent="1" source="wM-TAG3pXfIrLLwX2Dby-47" target="wM-TAG3pXfIrLLwX2Dby-36" edge="1">
          <mxGeometry width="50" height="50" relative="1" as="geometry">
            <mxPoint x="148" y="474" as="sourcePoint" />
            <mxPoint x="198" y="434" as="targetPoint" />
          </mxGeometry>
        </mxCell>
        <mxCell id="C6wh3EZtJ7LM_V2KeVHM-67" value="" style="endArrow=none;html=1;rounded=0;exitX=0.5;exitY=0.5;exitDx=0;exitDy=0;exitPerimeter=0;" parent="1" edge="1">
          <mxGeometry width="50" height="50" relative="1" as="geometry">
            <mxPoint x="-211" y="747" as="sourcePoint" />
            <mxPoint x="42.902613732948794" y="778.7813092519739" as="targetPoint" />
          </mxGeometry>
        </mxCell>
        <mxCell id="C6wh3EZtJ7LM_V2KeVHM-66" value="" style="curved=1;endArrow=none;html=1;rounded=0;entryX=0.031;entryY=0.725;entryDx=0;entryDy=0;entryPerimeter=0;endFill=0;" parent="1" edge="1">
          <mxGeometry width="50" height="50" relative="1" as="geometry">
            <mxPoint x="-212" y="747" as="sourcePoint" />
            <mxPoint x="-3.0399999999999636" y="622" as="targetPoint" />
            <Array as="points">
              <mxPoint x="-153" y="748" />
              <mxPoint x="-203" y="698" />
              <mxPoint x="-203" y="568" />
              <mxPoint x="-143" y="558" />
            </Array>
          </mxGeometry>
        </mxCell>
        <mxCell id="C6wh3EZtJ7LM_V2KeVHM-82" value="e-commerce online shopping system" style="sketch=0;points=[[0,0,0],[0.25,0,0],[0.5,0,0],[0.75,0,0],[1,0,0],[1,0.25,0],[1,0.5,0],[1,0.75,0],[1,1,0],[0.75,1,0],[0.5,1,0],[0.25,1,0],[0,1,0],[0,0.75,0],[0,0.5,0],[0,0.25,0]];rounded=1;absoluteArcSize=1;arcSize=2;html=1;strokeColor=#d79b00;shadow=0;dashed=0;fontSize=12;align=left;verticalAlign=top;spacing=10;spacingTop=-4;whiteSpace=wrap;fillColor=none;" parent="1" vertex="1">
          <mxGeometry x="-40.25" y="344" width="986.5" height="1120" as="geometry" />
        </mxCell>
        <mxCell id="wM-TAG3pXfIrLLwX2Dby-10" value="Customers" style="shape=umlActor;verticalLabelPosition=bottom;verticalAlign=top;html=1;outlineConnect=0;fillColor=#eeeeee;strokeColor=#36393d;" parent="1" vertex="1">
          <mxGeometry x="-194" y="870" width="30" height="60" as="geometry" />
        </mxCell>
        <mxCell id="wM-TAG3pXfIrLLwX2Dby-11" value="Administrators" style="shape=umlActor;verticalLabelPosition=bottom;verticalAlign=top;html=1;outlineConnect=0;fillColor=#b0e3e6;strokeColor=#0e8088;" parent="1" vertex="1">
          <mxGeometry x="-172" y="464" width="30" height="60" as="geometry" />
        </mxCell>
        <mxCell id="wM-TAG3pXfIrLLwX2Dby-14" value="Business Clients" style="shape=umlActor;verticalLabelPosition=bottom;verticalAlign=top;html=1;outlineConnect=0;fillColor=#fad7ac;strokeColor=#b46504;" parent="1" vertex="1">
          <mxGeometry x="1060" y="525" width="30" height="60" as="geometry" />
        </mxCell>
        <mxCell id="wM-TAG3pXfIrLLwX2Dby-20" value="Requirment Gathering and Feedback" style="ellipse;whiteSpace=wrap;html=1;fillColor=#fad7ac;strokeColor=#b46504;" parent="1" vertex="1">
          <mxGeometry x="650" y="455" width="230.75" height="54" as="geometry" />
        </mxCell>
        <mxCell id="wM-TAG3pXfIrLLwX2Dby-32" value="" style="ellipse;whiteSpace=wrap;html=1;fillColor=#b0e3e6;strokeColor=#0e8088;" parent="1" vertex="1">
          <mxGeometry x="-2" y="454" width="150" height="30" as="geometry" />
        </mxCell>
        <mxCell id="wM-TAG3pXfIrLLwX2Dby-33" value="" style="ellipse;whiteSpace=wrap;html=1;fillColor=#b0e3e6;strokeColor=#0e8088;" parent="1" vertex="1">
          <mxGeometry x="-7" y="599" width="160" height="40" as="geometry" />
        </mxCell>
        <mxCell id="wM-TAG3pXfIrLLwX2Dby-36" value="Inventory Managment" style="text;html=1;align=center;verticalAlign=middle;whiteSpace=wrap;rounded=0;fillColor=none;" parent="1" vertex="1">
          <mxGeometry x="-7" y="454" width="160" height="30" as="geometry" />
        </mxCell>
        <mxCell id="wM-TAG3pXfIrLLwX2Dby-37" value="Order Managment" style="text;html=1;align=center;verticalAlign=middle;whiteSpace=wrap;rounded=0;" parent="1" vertex="1">
          <mxGeometry x="8" y="604" width="120" height="30" as="geometry" />
        </mxCell>
        <mxCell id="wM-TAG3pXfIrLLwX2Dby-38" value="" style="ellipse;whiteSpace=wrap;html=1;fillColor=#b0e3e6;strokeColor=#0e8088;" parent="1" vertex="1">
          <mxGeometry x="413" y="374" width="120" height="30" as="geometry" />
        </mxCell>
        <mxCell id="wM-TAG3pXfIrLLwX2Dby-40" value="" style="ellipse;whiteSpace=wrap;html=1;fillColor=#b0e3e6;strokeColor=#0e8088;" parent="1" vertex="1">
          <mxGeometry x="413" y="421.5" width="120" height="35" as="geometry" />
        </mxCell>
        <mxCell id="wM-TAG3pXfIrLLwX2Dby-41" value="" style="ellipse;whiteSpace=wrap;html=1;fillColor=#b0e3e6;strokeColor=#0e8088;" parent="1" vertex="1">
          <mxGeometry x="420.5" y="469" width="125" height="30" as="geometry" />
        </mxCell>
        <mxCell id="wM-TAG3pXfIrLLwX2Dby-42" value="" style="ellipse;whiteSpace=wrap;html=1;fillColor=#b0e3e6;strokeColor=#0e8088;" parent="1" vertex="1">
          <mxGeometry x="433" y="509" width="145" height="40" as="geometry" />
        </mxCell>
        <mxCell id="wM-TAG3pXfIrLLwX2Dby-43" value="Add product" style="text;html=1;align=center;verticalAlign=middle;whiteSpace=wrap;rounded=0;" parent="1" vertex="1">
          <mxGeometry x="425.5" y="374" width="95" height="30" as="geometry" />
        </mxCell>
        <mxCell id="wM-TAG3pXfIrLLwX2Dby-44" value="Edit Product" style="text;html=1;align=center;verticalAlign=middle;whiteSpace=wrap;rounded=0;" parent="1" vertex="1">
          <mxGeometry x="438" y="424" width="90" height="30" as="geometry" />
        </mxCell>
        <mxCell id="wM-TAG3pXfIrLLwX2Dby-45" value="" style="endArrow=classic;html=1;rounded=0;entryX=0.919;entryY=0.1;entryDx=0;entryDy=0;entryPerimeter=0;exitX=0;exitY=0.5;exitDx=0;exitDy=0;" parent="1" source="wM-TAG3pXfIrLLwX2Dby-38" target="wM-TAG3pXfIrLLwX2Dby-36" edge="1">
          <mxGeometry width="50" height="50" relative="1" as="geometry">
            <mxPoint x="408" y="384" as="sourcePoint" />
            <mxPoint x="368" y="384" as="targetPoint" />
          </mxGeometry>
        </mxCell>
        <mxCell id="wM-TAG3pXfIrLLwX2Dby-46" value="" style="endArrow=classic;html=1;rounded=0;exitX=0;exitY=0.5;exitDx=0;exitDy=0;entryX=1;entryY=0.5;entryDx=0;entryDy=0;" parent="1" source="wM-TAG3pXfIrLLwX2Dby-40" target="wM-TAG3pXfIrLLwX2Dby-36" edge="1">
          <mxGeometry width="50" height="50" relative="1" as="geometry">
            <mxPoint x="148" y="474" as="sourcePoint" />
            <mxPoint x="398" y="464" as="targetPoint" />
          </mxGeometry>
        </mxCell>
        <mxCell id="wM-TAG3pXfIrLLwX2Dby-47" value="Remove Product" style="text;html=1;align=center;verticalAlign=middle;whiteSpace=wrap;rounded=0;" parent="1" vertex="1">
          <mxGeometry x="428" y="469" width="115" height="25" as="geometry" />
        </mxCell>
        <mxCell id="wM-TAG3pXfIrLLwX2Dby-48" value="Update Stock Avilability" style="text;html=1;align=center;verticalAlign=middle;whiteSpace=wrap;rounded=0;" parent="1" vertex="1">
          <mxGeometry x="413" y="514" width="177.5" height="30" as="geometry" />
        </mxCell>
        <mxCell id="wM-TAG3pXfIrLLwX2Dby-51" value="&amp;lt;&amp;lt;extend&amp;gt;&amp;gt;" style="text;html=1;align=center;verticalAlign=middle;whiteSpace=wrap;rounded=0;rotation=-15;" parent="1" vertex="1">
          <mxGeometry x="208" y="404" width="60" height="30" as="geometry" />
        </mxCell>
        <mxCell id="wM-TAG3pXfIrLLwX2Dby-52" value="&amp;lt;&amp;lt;extend&amp;gt;&amp;gt;" style="text;html=1;align=center;verticalAlign=middle;whiteSpace=wrap;rounded=0;rotation=-10;" parent="1" vertex="1">
          <mxGeometry x="256" y="426.5" width="60" height="30" as="geometry" />
        </mxCell>
        <mxCell id="wM-TAG3pXfIrLLwX2Dby-53" value="&amp;lt;&amp;lt;extend&amp;gt;&amp;gt;" style="text;html=1;align=center;verticalAlign=middle;whiteSpace=wrap;rounded=0;" parent="1" vertex="1">
          <mxGeometry x="258" y="462" width="60" height="30" as="geometry" />
        </mxCell>
        <mxCell id="wM-TAG3pXfIrLLwX2Dby-55" value="" style="ellipse;whiteSpace=wrap;html=1;fillColor=#b0e3e6;strokeColor=#0e8088;" parent="1" vertex="1">
          <mxGeometry x="238" y="574" width="130" height="35" as="geometry" />
        </mxCell>
        <mxCell id="wM-TAG3pXfIrLLwX2Dby-56" value="" style="ellipse;whiteSpace=wrap;html=1;fillColor=#b0e3e6;strokeColor=#0e8088;" parent="1" vertex="1">
          <mxGeometry x="240.5" y="624" width="127.5" height="30" as="geometry" />
        </mxCell>
        <mxCell id="wM-TAG3pXfIrLLwX2Dby-57" value="" style="ellipse;whiteSpace=wrap;html=1;fillColor=#b0e3e6;strokeColor=#0e8088;" parent="1" vertex="1">
          <mxGeometry x="238" y="664" width="190" height="40" as="geometry" />
        </mxCell>
        <mxCell id="wM-TAG3pXfIrLLwX2Dby-58" value="View Order Details" style="text;html=1;align=center;verticalAlign=middle;whiteSpace=wrap;rounded=0;" parent="1" vertex="1">
          <mxGeometry x="240.5" y="576.5" width="130" height="30" as="geometry" />
        </mxCell>
        <mxCell id="wM-TAG3pXfIrLLwX2Dby-59" value="Update Order Status" style="text;html=1;align=center;verticalAlign=middle;whiteSpace=wrap;rounded=0;" parent="1" vertex="1">
          <mxGeometry x="226" y="623" width="160" height="30" as="geometry" />
        </mxCell>
        <mxCell id="wM-TAG3pXfIrLLwX2Dby-60" value="Notify Customers Of Changes" style="text;html=1;align=center;verticalAlign=middle;whiteSpace=wrap;rounded=0;" parent="1" vertex="1">
          <mxGeometry x="251.5" y="669" width="169" height="30" as="geometry" />
        </mxCell>
        <mxCell id="wM-TAG3pXfIrLLwX2Dby-61" value="" style="endArrow=classic;html=1;rounded=0;entryX=0;entryY=0.25;entryDx=0;entryDy=0;" parent="1" target="wM-TAG3pXfIrLLwX2Dby-58" edge="1">
          <mxGeometry width="50" height="50" relative="1" as="geometry">
            <mxPoint x="128" y="604" as="sourcePoint" />
            <mxPoint x="178" y="554" as="targetPoint" />
          </mxGeometry>
        </mxCell>
        <mxCell id="wM-TAG3pXfIrLLwX2Dby-63" value="" style="endArrow=classic;html=1;rounded=0;exitX=0;exitY=0.5;exitDx=0;exitDy=0;entryX=1;entryY=1;entryDx=0;entryDy=0;" parent="1" source="wM-TAG3pXfIrLLwX2Dby-57" target="wM-TAG3pXfIrLLwX2Dby-37" edge="1">
          <mxGeometry width="50" height="50" relative="1" as="geometry">
            <mxPoint x="118" y="654" as="sourcePoint" />
            <mxPoint x="68" y="654" as="targetPoint" />
          </mxGeometry>
        </mxCell>
        <mxCell id="wM-TAG3pXfIrLLwX2Dby-64" value="&amp;lt;&amp;lt;include&amp;gt;&amp;gt;" style="text;html=1;align=center;verticalAlign=middle;whiteSpace=wrap;rounded=0;rotation=-15;" parent="1" vertex="1">
          <mxGeometry x="148" y="569" width="60" height="30" as="geometry" />
        </mxCell>
        <mxCell id="wM-TAG3pXfIrLLwX2Dby-65" value="&amp;lt;&amp;lt;include&amp;gt;&amp;gt;" style="text;html=1;align=center;verticalAlign=middle;whiteSpace=wrap;rounded=0;" parent="1" vertex="1">
          <mxGeometry x="168" y="604" width="60" height="30" as="geometry" />
        </mxCell>
        <mxCell id="wM-TAG3pXfIrLLwX2Dby-66" value="&amp;lt;&amp;lt;extend&amp;gt;&amp;gt;" style="text;html=1;align=center;verticalAlign=middle;whiteSpace=wrap;rounded=0;rotation=15;" parent="1" vertex="1">
          <mxGeometry x="168" y="639" width="60" height="30" as="geometry" />
        </mxCell>
        <mxCell id="wM-TAG3pXfIrLLwX2Dby-86" value="" style="ellipse;whiteSpace=wrap;html=1;fillColor=#eeeeee;strokeColor=#36393d;" parent="1" vertex="1">
          <mxGeometry x="48" y="864" width="120" height="40" as="geometry" />
        </mxCell>
        <mxCell id="wM-TAG3pXfIrLLwX2Dby-87" value="Profile Management" style="text;html=1;align=center;verticalAlign=middle;whiteSpace=wrap;rounded=0;" parent="1" vertex="1">
          <mxGeometry x="30.5" y="869" width="155" height="30" as="geometry" />
        </mxCell>
        <mxCell id="wM-TAG3pXfIrLLwX2Dby-88" value="" style="ellipse;whiteSpace=wrap;html=1;fillColor=#eeeeee;strokeColor=#36393d;" parent="1" vertex="1">
          <mxGeometry x="269.75" y="854" width="235" height="30" as="geometry" />
        </mxCell>
        <mxCell id="wM-TAG3pXfIrLLwX2Dby-89" value="" style="ellipse;whiteSpace=wrap;html=1;fillColor=#eeeeee;strokeColor=#36393d;" parent="1" vertex="1">
          <mxGeometry x="305.5" y="904" width="120" height="25" as="geometry" />
        </mxCell>
        <mxCell id="wM-TAG3pXfIrLLwX2Dby-90" value="Update and view Profile Information" style="text;html=1;align=center;verticalAlign=middle;whiteSpace=wrap;rounded=0;" parent="1" vertex="1">
          <mxGeometry x="288" y="854" width="200" height="30" as="geometry" />
        </mxCell>
        <mxCell id="wM-TAG3pXfIrLLwX2Dby-91" value="Update Password" style="text;html=1;align=center;verticalAlign=middle;whiteSpace=wrap;rounded=0;" parent="1" vertex="1">
          <mxGeometry x="303" y="901.5" width="122.5" height="30" as="geometry" />
        </mxCell>
        <mxCell id="wM-TAG3pXfIrLLwX2Dby-92" value="" style="endArrow=classic;html=1;rounded=0;exitX=0;exitY=0.5;exitDx=0;exitDy=0;entryX=0;entryY=1;entryDx=0;entryDy=0;" parent="1" source="wM-TAG3pXfIrLLwX2Dby-88" edge="1">
          <mxGeometry width="50" height="50" relative="1" as="geometry">
            <mxPoint x="168" y="834" as="sourcePoint" />
            <mxPoint x="162.90451088786585" y="876.2534587474115" as="targetPoint" />
          </mxGeometry>
        </mxCell>
        <mxCell id="wM-TAG3pXfIrLLwX2Dby-100" value="" style="endArrow=classic;html=1;rounded=0;exitX=0;exitY=0.5;exitDx=0;exitDy=0;" parent="1" source="wM-TAG3pXfIrLLwX2Dby-91" edge="1">
          <mxGeometry width="50" height="50" relative="1" as="geometry">
            <mxPoint x="168" y="894" as="sourcePoint" />
            <mxPoint x="168" y="884" as="targetPoint" />
          </mxGeometry>
        </mxCell>
        <mxCell id="wM-TAG3pXfIrLLwX2Dby-104" value="&amp;lt;&amp;lt;extend&amp;gt;&amp;gt;" style="text;html=1;align=center;verticalAlign=middle;whiteSpace=wrap;rounded=0;rotation=10;" parent="1" vertex="1">
          <mxGeometry x="228" y="879" width="60" height="30" as="geometry" />
        </mxCell>
        <mxCell id="wM-TAG3pXfIrLLwX2Dby-105" value="" style="ellipse;whiteSpace=wrap;html=1;fillColor=#eeeeee;strokeColor=#36393d;" parent="1" vertex="1">
          <mxGeometry x="43" y="984" width="175" height="30" as="geometry" />
        </mxCell>
        <mxCell id="wM-TAG3pXfIrLLwX2Dby-109" value="" style="ellipse;whiteSpace=wrap;html=1;fillColor=#eeeeee;strokeColor=#36393d;" parent="1" vertex="1">
          <mxGeometry x="378" y="1054" width="160" height="40" as="geometry" />
        </mxCell>
        <mxCell id="wM-TAG3pXfIrLLwX2Dby-111" value="View Product Details" style="text;html=1;align=center;verticalAlign=middle;whiteSpace=wrap;rounded=0;" parent="1" vertex="1">
          <mxGeometry x="391" y="1059" width="130" height="30" as="geometry" />
        </mxCell>
        <mxCell id="wM-TAG3pXfIrLLwX2Dby-112" value="" style="endArrow=classic;html=1;rounded=0;" parent="1" edge="1">
          <mxGeometry width="50" height="50" relative="1" as="geometry">
            <mxPoint x="218" y="994" as="sourcePoint" />
            <mxPoint x="504" y="983" as="targetPoint" />
          </mxGeometry>
        </mxCell>
        <mxCell id="wM-TAG3pXfIrLLwX2Dby-113" value="" style="endArrow=classic;html=1;rounded=0;entryX=0.019;entryY=0.25;entryDx=0;entryDy=0;entryPerimeter=0;" parent="1" target="wM-TAG3pXfIrLLwX2Dby-109" edge="1">
          <mxGeometry width="50" height="50" relative="1" as="geometry">
            <mxPoint x="218" y="1004" as="sourcePoint" />
            <mxPoint x="268" y="954" as="targetPoint" />
          </mxGeometry>
        </mxCell>
        <mxCell id="wM-TAG3pXfIrLLwX2Dby-114" value="&amp;lt;&amp;lt;include&amp;gt;&amp;gt;" style="text;html=1;align=center;verticalAlign=middle;whiteSpace=wrap;rounded=0;rotation=-2.1;" parent="1" vertex="1">
          <mxGeometry x="353" y="963" width="60" height="30" as="geometry" />
        </mxCell>
        <mxCell id="wM-TAG3pXfIrLLwX2Dby-115" value="&amp;lt;&amp;lt;include&amp;gt;&amp;gt;" style="text;html=1;align=center;verticalAlign=middle;whiteSpace=wrap;rounded=0;rotation=15;" parent="1" vertex="1">
          <mxGeometry x="288" y="1014" width="60" height="30" as="geometry" />
        </mxCell>
        <mxCell id="wM-TAG3pXfIrLLwX2Dby-117" value="" style="ellipse;whiteSpace=wrap;html=1;fillColor=#eeeeee;strokeColor=#36393d;" parent="1" vertex="1">
          <mxGeometry x="78" y="1154" width="120" height="40" as="geometry" />
        </mxCell>
        <mxCell id="wM-TAG3pXfIrLLwX2Dby-118" value="Shopping Cart" style="text;html=1;align=center;verticalAlign=middle;whiteSpace=wrap;rounded=0;" parent="1" vertex="1">
          <mxGeometry x="80.5" y="1159" width="120" height="30" as="geometry" />
        </mxCell>
        <mxCell id="wM-TAG3pXfIrLLwX2Dby-119" value="" style="ellipse;whiteSpace=wrap;html=1;fillColor=#eeeeee;strokeColor=#36393d;" parent="1" vertex="1">
          <mxGeometry x="437" y="1144" width="133" height="30" as="geometry" />
        </mxCell>
        <mxCell id="wM-TAG3pXfIrLLwX2Dby-120" value="Add Item" style="text;html=1;align=center;verticalAlign=middle;whiteSpace=wrap;rounded=0;" parent="1" vertex="1">
          <mxGeometry x="470" y="1144" width="60" height="30" as="geometry" />
        </mxCell>
        <mxCell id="wM-TAG3pXfIrLLwX2Dby-123" value="" style="ellipse;whiteSpace=wrap;html=1;fillColor=#eeeeee;strokeColor=#36393d;" parent="1" vertex="1">
          <mxGeometry x="348" y="1244" width="120" height="30" as="geometry" />
        </mxCell>
        <mxCell id="wM-TAG3pXfIrLLwX2Dby-124" value="Remove Item" style="text;html=1;align=center;verticalAlign=middle;whiteSpace=wrap;rounded=0;" parent="1" vertex="1">
          <mxGeometry x="365" y="1244" width="80" height="30" as="geometry" />
        </mxCell>
        <mxCell id="wM-TAG3pXfIrLLwX2Dby-127" value="" style="endArrow=classic;html=1;rounded=0;entryX=0.9;entryY=1;entryDx=0;entryDy=0;entryPerimeter=0;" parent="1" source="wM-TAG3pXfIrLLwX2Dby-123" target="wM-TAG3pXfIrLLwX2Dby-118" edge="1">
          <mxGeometry width="50" height="50" relative="1" as="geometry">
            <mxPoint x="168" y="1194" as="sourcePoint" />
            <mxPoint x="198" y="1234" as="targetPoint" />
          </mxGeometry>
        </mxCell>
        <mxCell id="wM-TAG3pXfIrLLwX2Dby-132" value="&amp;lt;&amp;lt;extend&amp;gt;&amp;gt;" style="text;html=1;align=center;verticalAlign=middle;whiteSpace=wrap;rounded=0;" parent="1" vertex="1">
          <mxGeometry x="316" y="1134" width="60" height="30" as="geometry" />
        </mxCell>
        <mxCell id="wM-TAG3pXfIrLLwX2Dby-134" value="&amp;lt;&amp;lt;extend&amp;gt;&amp;gt;" style="text;html=1;align=center;verticalAlign=middle;whiteSpace=wrap;rounded=0;rotation=15;" parent="1" vertex="1">
          <mxGeometry x="269.75" y="1199" width="60" height="30" as="geometry" />
        </mxCell>
        <mxCell id="wM-TAG3pXfIrLLwX2Dby-135" value="" style="ellipse;whiteSpace=wrap;html=1;fillColor=#eeeeee;strokeColor=#36393d;" parent="1" vertex="1">
          <mxGeometry x="96" y="1344" width="220" height="40" as="geometry" />
        </mxCell>
        <mxCell id="wM-TAG3pXfIrLLwX2Dby-137" value="Order Processing and Payment" style="text;html=1;align=center;verticalAlign=middle;whiteSpace=wrap;rounded=0;" parent="1" vertex="1">
          <mxGeometry x="106" y="1349" width="210" height="30" as="geometry" />
        </mxCell>
        <mxCell id="wM-TAG3pXfIrLLwX2Dby-138" value="" style="ellipse;whiteSpace=wrap;html=1;fillColor=#eeeeee;strokeColor=#36393d;" parent="1" vertex="1">
          <mxGeometry x="488" y="1324" width="120" height="45" as="geometry" />
        </mxCell>
        <mxCell id="wM-TAG3pXfIrLLwX2Dby-142" value="Payment Options" style="text;html=1;align=center;verticalAlign=middle;whiteSpace=wrap;rounded=0;" parent="1" vertex="1">
          <mxGeometry x="493.5" y="1331.5" width="109" height="30" as="geometry" />
        </mxCell>
        <mxCell id="wM-TAG3pXfIrLLwX2Dby-144" value="" style="endArrow=classic;html=1;rounded=0;entryX=0;entryY=0.5;entryDx=0;entryDy=0;" parent="1" target="wM-TAG3pXfIrLLwX2Dby-138" edge="1">
          <mxGeometry width="50" height="50" relative="1" as="geometry">
            <mxPoint x="318" y="1364" as="sourcePoint" />
            <mxPoint x="368" y="1314" as="targetPoint" />
          </mxGeometry>
        </mxCell>
        <mxCell id="wM-TAG3pXfIrLLwX2Dby-146" value="&amp;lt;&amp;lt;include&amp;gt;&amp;gt;" style="text;html=1;align=center;verticalAlign=middle;whiteSpace=wrap;rounded=0;rotation=-5;" parent="1" vertex="1">
          <mxGeometry x="358" y="1332" width="60" height="30" as="geometry" />
        </mxCell>
        <mxCell id="wM-TAG3pXfIrLLwX2Dby-149" value="" style="endArrow=classic;html=1;rounded=0;entryX=0.631;entryY=1.067;entryDx=0;entryDy=0;entryPerimeter=0;exitX=0.18;exitY=0.867;exitDx=0;exitDy=0;exitPerimeter=0;" parent="1" source="wM-TAG3pXfIrLLwX2Dby-48" target="wM-TAG3pXfIrLLwX2Dby-36" edge="1">
          <mxGeometry width="50" height="50" relative="1" as="geometry">
            <mxPoint x="428" y="554" as="sourcePoint" />
            <mxPoint x="108" y="494" as="targetPoint" />
          </mxGeometry>
        </mxCell>
        <mxCell id="wM-TAG3pXfIrLLwX2Dby-150" value="&amp;lt;&amp;lt;extend&amp;gt;&amp;gt;" style="text;html=1;align=center;verticalAlign=middle;whiteSpace=wrap;rounded=0;rotation=5;" parent="1" vertex="1">
          <mxGeometry x="318" y="499" width="60" height="30" as="geometry" />
        </mxCell>
        <mxCell id="wM-TAG3pXfIrLLwX2Dby-151" value="" style="endArrow=classic;html=1;rounded=0;entryX=1;entryY=0.25;entryDx=0;entryDy=0;" parent="1" target="wM-TAG3pXfIrLLwX2Dby-118" edge="1">
          <mxGeometry width="50" height="50" relative="1" as="geometry">
            <mxPoint x="438" y="1164" as="sourcePoint" />
            <mxPoint x="208" y="1094" as="targetPoint" />
          </mxGeometry>
        </mxCell>
        <mxCell id="iVDdGmymL_h3rcxLCdr5-26" value="Identity provider" style="shape=umlActor;verticalLabelPosition=bottom;verticalAlign=top;html=1;outlineConnect=0;" parent="1" vertex="1">
          <mxGeometry x="1029" y="1240" width="30" height="60" as="geometry" />
        </mxCell>
        <mxCell id="iVDdGmymL_h3rcxLCdr5-32" value="&amp;lt;&amp;lt;include&amp;gt;&amp;gt;" style="text;html=1;align=center;verticalAlign=middle;whiteSpace=wrap;rounded=0;rotation=-100;" parent="1" vertex="1">
          <mxGeometry x="58" y="1059" width="60" height="30" as="geometry" />
        </mxCell>
        <mxCell id="iVDdGmymL_h3rcxLCdr5-33" value="" style="endArrow=classic;html=1;rounded=0;entryX=0.332;entryY=-0.025;entryDx=0;entryDy=0;entryPerimeter=0;" parent="1" target="wM-TAG3pXfIrLLwX2Dby-135" edge="1">
          <mxGeometry width="50" height="50" relative="1" as="geometry">
            <mxPoint x="118" y="1194" as="sourcePoint" />
            <mxPoint x="168" y="1144" as="targetPoint" />
          </mxGeometry>
        </mxCell>
        <mxCell id="iVDdGmymL_h3rcxLCdr5-34" value="&amp;lt;&amp;lt;extend&amp;gt;&amp;gt;" style="text;html=1;align=center;verticalAlign=middle;whiteSpace=wrap;rounded=0;rotation=-105;" parent="1" vertex="1">
          <mxGeometry x="98" y="1241" width="60" height="30" as="geometry" />
        </mxCell>
        <mxCell id="C6wh3EZtJ7LM_V2KeVHM-1" value="" style="ellipse;whiteSpace=wrap;html=1;fillColor=#eeeeee;strokeColor=#36393d;" parent="1" vertex="1">
          <mxGeometry x="8" y="764" width="250" height="50" as="geometry" />
        </mxCell>
        <mxCell id="C6wh3EZtJ7LM_V2KeVHM-2" value="customer registration and authentication" style="text;html=1;align=center;verticalAlign=middle;whiteSpace=wrap;rounded=0;" parent="1" vertex="1">
          <mxGeometry x="18.5" y="774" width="230" height="30" as="geometry" />
        </mxCell>
        <mxCell id="C6wh3EZtJ7LM_V2KeVHM-3" value="" style="endArrow=none;html=1;rounded=0;entryX=0;entryY=0.5;entryDx=0;entryDy=0;" parent="1" target="C6wh3EZtJ7LM_V2KeVHM-1" edge="1">
          <mxGeometry width="50" height="50" relative="1" as="geometry">
            <mxPoint x="-152" y="884" as="sourcePoint" />
            <mxPoint x="-102" y="834" as="targetPoint" />
          </mxGeometry>
        </mxCell>
        <mxCell id="C6wh3EZtJ7LM_V2KeVHM-5" value="" style="endArrow=none;html=1;rounded=0;" parent="1" edge="1">
          <mxGeometry width="50" height="50" relative="1" as="geometry">
            <mxPoint x="-142" y="894" as="sourcePoint" />
            <mxPoint x="48" y="884" as="targetPoint" />
          </mxGeometry>
        </mxCell>
        <mxCell id="C6wh3EZtJ7LM_V2KeVHM-7" value="Product Browsing" style="text;html=1;align=center;verticalAlign=middle;whiteSpace=wrap;rounded=0;" parent="1" vertex="1">
          <mxGeometry x="63" y="984" width="110" height="30" as="geometry" />
        </mxCell>
        <mxCell id="C6wh3EZtJ7LM_V2KeVHM-8" value="" style="endArrow=none;html=1;rounded=0;entryX=0;entryY=0.5;entryDx=0;entryDy=0;" parent="1" target="wM-TAG3pXfIrLLwX2Dby-105" edge="1">
          <mxGeometry width="50" height="50" relative="1" as="geometry">
            <mxPoint x="-141" y="907" as="sourcePoint" />
            <mxPoint x="-92" y="854" as="targetPoint" />
          </mxGeometry>
        </mxCell>
        <mxCell id="C6wh3EZtJ7LM_V2KeVHM-9" value="" style="endArrow=none;html=1;rounded=0;entryX=0;entryY=0.25;entryDx=0;entryDy=0;" parent="1" target="wM-TAG3pXfIrLLwX2Dby-118" edge="1">
          <mxGeometry width="50" height="50" relative="1" as="geometry">
            <mxPoint x="-142" y="914" as="sourcePoint" />
            <mxPoint x="-92" y="864" as="targetPoint" />
          </mxGeometry>
        </mxCell>
        <mxCell id="C6wh3EZtJ7LM_V2KeVHM-11" value="" style="endArrow=none;html=1;rounded=0;" parent="1" edge="1">
          <mxGeometry width="50" height="50" relative="1" as="geometry">
            <mxPoint x="886" y="836" as="sourcePoint" />
            <mxPoint x="1039" y="887" as="targetPoint" />
          </mxGeometry>
        </mxCell>
        <mxCell id="C6wh3EZtJ7LM_V2KeVHM-12" value="" style="endArrow=none;html=1;rounded=0;" parent="1" edge="1">
          <mxGeometry width="50" height="50" relative="1" as="geometry">
            <mxPoint x="-142" y="514" as="sourcePoint" />
            <mxPoint x="-7" y="619" as="targetPoint" />
          </mxGeometry>
        </mxCell>
        <mxCell id="C6wh3EZtJ7LM_V2KeVHM-13" value="" style="endArrow=none;html=1;rounded=0;" parent="1" edge="1">
          <mxGeometry width="50" height="50" relative="1" as="geometry">
            <mxPoint x="-142" y="514" as="sourcePoint" />
            <mxPoint x="-2" y="469" as="targetPoint" />
          </mxGeometry>
        </mxCell>
        <mxCell id="C6wh3EZtJ7LM_V2KeVHM-15" value="" style="endArrow=classic;html=1;rounded=0;entryX=0;entryY=0.5;entryDx=0;entryDy=0;" parent="1" target="C6wh3EZtJ7LM_V2KeVHM-16" edge="1">
          <mxGeometry width="50" height="50" relative="1" as="geometry">
            <mxPoint x="228" y="774" as="sourcePoint" />
            <mxPoint x="348" y="744" as="targetPoint" />
          </mxGeometry>
        </mxCell>
        <mxCell id="C6wh3EZtJ7LM_V2KeVHM-16" value="" style="ellipse;whiteSpace=wrap;html=1;fillColor=#eeeeee;strokeColor=#36393d;" parent="1" vertex="1">
          <mxGeometry x="488" y="679" width="130" height="35" as="geometry" />
        </mxCell>
        <mxCell id="C6wh3EZtJ7LM_V2KeVHM-17" value="" style="ellipse;whiteSpace=wrap;html=1;fillColor=#eeeeee;strokeColor=#36393d;" parent="1" vertex="1">
          <mxGeometry x="458" y="724" width="190" height="30" as="geometry" />
        </mxCell>
        <mxCell id="C6wh3EZtJ7LM_V2KeVHM-18" value="" style="ellipse;whiteSpace=wrap;html=1;fillColor=#eeeeee;strokeColor=#36393d;" parent="1" vertex="1">
          <mxGeometry x="458" y="774" width="190" height="20" as="geometry" />
        </mxCell>
        <mxCell id="C6wh3EZtJ7LM_V2KeVHM-19" value="" style="ellipse;whiteSpace=wrap;html=1;fillColor=#eeeeee;strokeColor=#36393d;" parent="1" vertex="1">
          <mxGeometry x="713" y="721.5" width="130" height="30" as="geometry" />
        </mxCell>
        <mxCell id="C6wh3EZtJ7LM_V2KeVHM-20" value="" style="ellipse;whiteSpace=wrap;html=1;fillColor=#eeeeee;strokeColor=#36393d;" parent="1" vertex="1">
          <mxGeometry x="504.75" y="814" width="200" height="25" as="geometry" />
        </mxCell>
        <mxCell id="C6wh3EZtJ7LM_V2KeVHM-21" value="Register Customer" style="text;html=1;align=center;verticalAlign=middle;whiteSpace=wrap;rounded=0;" parent="1" vertex="1">
          <mxGeometry x="502" y="681.5" width="103.25" height="30" as="geometry" />
        </mxCell>
        <mxCell id="C6wh3EZtJ7LM_V2KeVHM-22" value="Secure Login and logout" style="text;html=1;align=center;verticalAlign=middle;whiteSpace=wrap;rounded=0;" parent="1" vertex="1">
          <mxGeometry x="445" y="724" width="215" height="30" as="geometry" />
        </mxCell>
        <mxCell id="C6wh3EZtJ7LM_V2KeVHM-23" value="Secure store password" style="text;html=1;align=center;verticalAlign=middle;whiteSpace=wrap;rounded=0;" parent="1" vertex="1">
          <mxGeometry x="483.5" y="769" width="138" height="30" as="geometry" />
        </mxCell>
        <mxCell id="C6wh3EZtJ7LM_V2KeVHM-24" value="Password reset" style="text;html=1;align=center;verticalAlign=middle;whiteSpace=wrap;rounded=0;" parent="1" vertex="1">
          <mxGeometry x="728" y="724" width="100" height="30" as="geometry" />
        </mxCell>
        <mxCell id="C6wh3EZtJ7LM_V2KeVHM-25" value="Separate Admin Login Interface" style="text;html=1;align=center;verticalAlign=middle;whiteSpace=wrap;rounded=0;" parent="1" vertex="1">
          <mxGeometry x="510" y="811.5" width="203" height="30" as="geometry" />
        </mxCell>
        <mxCell id="C6wh3EZtJ7LM_V2KeVHM-26" value="" style="endArrow=classic;html=1;rounded=0;" parent="1" edge="1">
          <mxGeometry width="50" height="50" relative="1" as="geometry">
            <mxPoint x="258" y="784" as="sourcePoint" />
            <mxPoint x="458" y="739" as="targetPoint" />
          </mxGeometry>
        </mxCell>
        <mxCell id="C6wh3EZtJ7LM_V2KeVHM-27" value="" style="endArrow=classic;html=1;rounded=0;" parent="1" target="C6wh3EZtJ7LM_V2KeVHM-18" edge="1">
          <mxGeometry width="50" height="50" relative="1" as="geometry">
            <mxPoint x="258" y="784" as="sourcePoint" />
            <mxPoint x="308" y="734" as="targetPoint" />
          </mxGeometry>
        </mxCell>
        <mxCell id="C6wh3EZtJ7LM_V2KeVHM-28" value="" style="endArrow=classic;html=1;rounded=0;entryX=0;entryY=0.5;entryDx=0;entryDy=0;" parent="1" target="C6wh3EZtJ7LM_V2KeVHM-19" edge="1">
          <mxGeometry width="50" height="50" relative="1" as="geometry">
            <mxPoint x="648" y="784" as="sourcePoint" />
            <mxPoint x="698" y="734" as="targetPoint" />
          </mxGeometry>
        </mxCell>
        <mxCell id="C6wh3EZtJ7LM_V2KeVHM-29" value="" style="endArrow=classic;html=1;rounded=0;entryX=0;entryY=0.5;entryDx=0;entryDy=0;" parent="1" target="C6wh3EZtJ7LM_V2KeVHM-25" edge="1">
          <mxGeometry width="50" height="50" relative="1" as="geometry">
            <mxPoint x="258" y="794" as="sourcePoint" />
            <mxPoint x="308" y="744" as="targetPoint" />
          </mxGeometry>
        </mxCell>
        <mxCell id="C6wh3EZtJ7LM_V2KeVHM-30" value="&amp;lt;&amp;lt;include&amp;gt;&amp;gt;" style="text;html=1;align=center;verticalAlign=middle;whiteSpace=wrap;rounded=0;rotation=-20;" parent="1" vertex="1">
          <mxGeometry x="298" y="722" width="60" height="30" as="geometry" />
        </mxCell>
        <mxCell id="C6wh3EZtJ7LM_V2KeVHM-31" value="&amp;lt;&amp;lt;include&amp;gt;&amp;gt;" style="text;html=1;align=center;verticalAlign=middle;whiteSpace=wrap;rounded=0;rotation=-15;" parent="1" vertex="1">
          <mxGeometry x="318" y="739" width="60" height="30" as="geometry" />
        </mxCell>
        <mxCell id="C6wh3EZtJ7LM_V2KeVHM-32" value="&amp;lt;&amp;lt;include&amp;gt;&amp;gt;" style="text;html=1;align=center;verticalAlign=middle;whiteSpace=wrap;rounded=0;" parent="1" vertex="1">
          <mxGeometry x="358" y="762" width="60" height="30" as="geometry" />
        </mxCell>
        <mxCell id="C6wh3EZtJ7LM_V2KeVHM-33" value="&amp;lt;&amp;lt;include&amp;gt;&amp;gt;" style="text;html=1;align=center;verticalAlign=middle;whiteSpace=wrap;rounded=0;rotation=10;" parent="1" vertex="1">
          <mxGeometry x="398" y="794" width="60" height="30" as="geometry" />
        </mxCell>
        <mxCell id="C6wh3EZtJ7LM_V2KeVHM-34" value="&amp;lt;&amp;lt;include&amp;gt;&amp;gt;" style="text;html=1;align=center;verticalAlign=middle;whiteSpace=wrap;rounded=0;rotation=-35;" parent="1" vertex="1">
          <mxGeometry x="638" y="744" width="60" height="30" as="geometry" />
        </mxCell>
        <mxCell id="C6wh3EZtJ7LM_V2KeVHM-38" value="&amp;lt;&amp;lt;extend&amp;gt;&amp;gt;" style="text;html=1;align=center;verticalAlign=middle;whiteSpace=wrap;rounded=0;" parent="1" vertex="1">
          <mxGeometry x="181" y="849" width="60" height="30" as="geometry" />
        </mxCell>
        <mxCell id="C6wh3EZtJ7LM_V2KeVHM-40" value="" style="ellipse;whiteSpace=wrap;html=1;fillColor=#eeeeee;strokeColor=#36393d;" parent="1" vertex="1">
          <mxGeometry x="528" y="1184" width="90" height="30" as="geometry" />
        </mxCell>
        <mxCell id="C6wh3EZtJ7LM_V2KeVHM-41" value="Update Cart" style="text;html=1;align=center;verticalAlign=middle;whiteSpace=wrap;rounded=0;" parent="1" vertex="1">
          <mxGeometry x="532" y="1184" width="86" height="30" as="geometry" />
        </mxCell>
        <mxCell id="C6wh3EZtJ7LM_V2KeVHM-42" value="" style="endArrow=classic;html=1;rounded=0;" parent="1" edge="1">
          <mxGeometry width="50" height="50" relative="1" as="geometry">
            <mxPoint x="528" y="1204" as="sourcePoint" />
            <mxPoint x="208" y="1174" as="targetPoint" />
          </mxGeometry>
        </mxCell>
        <mxCell id="C6wh3EZtJ7LM_V2KeVHM-43" value="&amp;lt;&amp;lt;extend&amp;gt;&amp;gt;" style="text;html=1;align=center;verticalAlign=middle;whiteSpace=wrap;rounded=0;rotation=5;" parent="1" vertex="1">
          <mxGeometry x="398" y="1172" width="60" height="30" as="geometry" />
        </mxCell>
        <mxCell id="C6wh3EZtJ7LM_V2KeVHM-44" value="" style="endArrow=classic;html=1;rounded=0;" parent="1" edge="1">
          <mxGeometry width="50" height="50" relative="1" as="geometry">
            <mxPoint x="308" y="1374" as="sourcePoint" />
            <mxPoint x="478" y="1394" as="targetPoint" />
          </mxGeometry>
        </mxCell>
        <mxCell id="C6wh3EZtJ7LM_V2KeVHM-45" value="" style="ellipse;whiteSpace=wrap;html=1;fillColor=#eeeeee;strokeColor=#36393d;" parent="1" vertex="1">
          <mxGeometry x="475.5" y="1379" width="172.5" height="33" as="geometry" />
        </mxCell>
        <mxCell id="C6wh3EZtJ7LM_V2KeVHM-46" value="Secure Payment Processing" style="text;html=1;align=center;verticalAlign=middle;whiteSpace=wrap;rounded=0;" parent="1" vertex="1">
          <mxGeometry x="472.75" y="1380.5" width="178" height="30" as="geometry" />
        </mxCell>
        <mxCell id="C6wh3EZtJ7LM_V2KeVHM-47" value="&amp;lt;&amp;lt;include&amp;gt;&amp;gt;" style="text;html=1;align=center;verticalAlign=middle;whiteSpace=wrap;rounded=0;" parent="1" vertex="1">
          <mxGeometry x="381" y="1362" width="60" height="30" as="geometry" />
        </mxCell>
        <mxCell id="C6wh3EZtJ7LM_V2KeVHM-61" value="Notfication&lt;div&gt;(service)&lt;/div&gt;" style="shape=umlActor;verticalLabelPosition=bottom;verticalAlign=top;html=1;outlineConnect=0;" parent="1" vertex="1">
          <mxGeometry x="-242" y="714" width="30" height="60" as="geometry" />
        </mxCell>
        <mxCell id="C6wh3EZtJ7LM_V2KeVHM-73" value="" style="curved=1;endArrow=none;html=1;rounded=0;entryX=0;entryY=0.5;entryDx=0;entryDy=0;endFill=0;" parent="1" target="wM-TAG3pXfIrLLwX2Dby-135" edge="1">
          <mxGeometry width="50" height="50" relative="1" as="geometry">
            <mxPoint x="-212" y="746" as="sourcePoint" />
            <mxPoint x="-62" y="1275" as="targetPoint" />
            <Array as="points">
              <mxPoint x="-162" y="804" />
              <mxPoint x="-192" y="844" />
              <mxPoint x="-222" y="954" />
              <mxPoint x="-302" y="1044" />
              <mxPoint x="-302" y="1074" />
              <mxPoint x="-224" y="1127" />
              <mxPoint x="-204" y="1136" />
              <mxPoint x="-194" y="1133" />
              <mxPoint x="-169" y="1148" />
            </Array>
          </mxGeometry>
        </mxCell>
        <mxCell id="wM-TAG3pXfIrLLwX2Dby-12" value="Developers" style="shape=umlActor;verticalLabelPosition=bottom;verticalAlign=top;html=1;outlineConnect=0;fillColor=#fad9d5;strokeColor=#ae4132;" parent="1" vertex="1">
          <mxGeometry x="1043" y="852" width="30" height="60" as="geometry" />
        </mxCell>
        <mxCell id="C6wh3EZtJ7LM_V2KeVHM-78" value="" style="endArrow=none;html=1;rounded=0;fillColor=none;" parent="1" edge="1">
          <mxGeometry width="50" height="50" relative="1" as="geometry">
            <mxPoint x="1009" y="1266" as="sourcePoint" />
            <mxPoint x="497.0916393488319" y="1090.1678258886227" as="targetPoint" />
          </mxGeometry>
        </mxCell>
        <mxCell id="C6wh3EZtJ7LM_V2KeVHM-81" value="" style="endArrow=none;html=1;rounded=0;entryX=1;entryY=0.75;entryDx=0;entryDy=0;" parent="1" target="wM-TAG3pXfIrLLwX2Dby-118" edge="1">
          <mxGeometry width="50" height="50" relative="1" as="geometry">
            <mxPoint x="1016" y="1266" as="sourcePoint" />
            <mxPoint x="838" y="1184" as="targetPoint" />
          </mxGeometry>
        </mxCell>
        <mxCell id="vY0SKIbWLiRxdPyfOX1l-2" value="" style="endArrow=none;html=1;rounded=0;" parent="1" edge="1">
          <mxGeometry width="50" height="50" relative="1" as="geometry">
            <mxPoint x="881" y="485" as="sourcePoint" />
            <mxPoint x="1056" y="563" as="targetPoint" />
          </mxGeometry>
        </mxCell>
        <mxCell id="wM-TAG3pXfIrLLwX2Dby-28" value="System Maintenance" style="ellipse;whiteSpace=wrap;html=1;fillColor=#fad9d5;strokeColor=#ae4132;" parent="1" vertex="1">
          <mxGeometry x="742" y="820" width="160" height="40" as="geometry" />
        </mxCell>
        <mxCell id="E4mHhsXxMy8RVh4DjNFg-1" value="" style="endArrow=classic;html=1;rounded=0;" edge="1" parent="1">
          <mxGeometry width="50" height="50" relative="1" as="geometry">
            <mxPoint x="623" y="987.5" as="sourcePoint" />
            <mxPoint x="745" y="949" as="targetPoint" />
          </mxGeometry>
        </mxCell>
        <mxCell id="wM-TAG3pXfIrLLwX2Dby-108" value="Product Search" style="ellipse;whiteSpace=wrap;html=1;fillColor=#eeeeee;strokeColor=#36393d;" parent="1" vertex="1">
          <mxGeometry x="503.5" y="963" width="157.5" height="40" as="geometry" />
        </mxCell>
        <mxCell id="E4mHhsXxMy8RVh4DjNFg-3" value="Item Found" style="ellipse;whiteSpace=wrap;html=1;fillColor=#eeeeee;strokeColor=#36393d;" vertex="1" parent="1">
          <mxGeometry x="742.75" y="927" width="137" height="40" as="geometry" />
        </mxCell>
        <mxCell id="E4mHhsXxMy8RVh4DjNFg-4" value="Item Not Fo&lt;span style=&quot;background-color: initial;&quot;&gt;und&lt;/span&gt;" style="ellipse;whiteSpace=wrap;html=1;fillColor=#eeeeee;strokeColor=#36393d;" vertex="1" parent="1">
          <mxGeometry x="733.5" y="1004" width="157.5" height="40" as="geometry" />
        </mxCell>
        <mxCell id="E4mHhsXxMy8RVh4DjNFg-5" value="" style="endArrow=classic;html=1;rounded=0;" edge="1" parent="1">
          <mxGeometry width="50" height="50" relative="1" as="geometry">
            <mxPoint x="650" y="993" as="sourcePoint" />
            <mxPoint x="735" y="1022" as="targetPoint" />
          </mxGeometry>
        </mxCell>
        <mxCell id="E4mHhsXxMy8RVh4DjNFg-6" value="&amp;lt;&amp;lt;include&amp;gt;&amp;gt;" style="text;html=1;align=center;verticalAlign=middle;whiteSpace=wrap;rounded=0;rotation=-20;" vertex="1" parent="1">
          <mxGeometry x="659.75" y="942" width="59" height="30" as="geometry" />
        </mxCell>
        <mxCell id="E4mHhsXxMy8RVh4DjNFg-9" value="&amp;lt;&amp;lt;include&amp;gt;&amp;gt;" style="text;html=1;align=center;verticalAlign=middle;whiteSpace=wrap;rounded=0;rotation=18;" vertex="1" parent="1">
          <mxGeometry x="664.5" y="985" width="59" height="30" as="geometry" />
        </mxCell>
      </root>
    </mxGraphModel>
  </diagram>
</mxfile>
